<svg width="124" height="183" viewBox="0 0 124 183" fill="none" xmlns="http://www.w3.org/2000/svg">
<path fill-rule="evenodd" clip-rule="evenodd" d="M108.813 46.2541C106.483 37.7886 97.5755 34.0947 89.5535 33.5085C67.8336 31.2363 45.7255 43.4212 36.0965 63.1794C28.3886 78.1825 28.1472 93.9429 44.7157 102.509C45.6206 103.011 46.5655 103.548 47.5305 104.035C48.3689 104.819 49.2323 105.573 50.1748 106.206C59.1969 112.177 70.2704 114.759 81.0016 114.199C96.846 113.877 102.502 103.058 105.964 89.1824C109.614 75.3687 111.656 60.3795 108.813 46.2541Z" fill="white"/>
<path d="M116.68 119.407C117.547 121.613 118.474 123.796 119.214 126.048C120.453 129.816 121.288 133.699 121.788 137.635C122.738 145.118 122.254 152.752 120.456 160.071C120.399 160.317 120.338 160.56 120.275 160.804C119.926 162.151 117.746 162.254 117.461 160.804L117.449 160.746C117.403 160.517 117.357 160.288 117.309 160.059C116.934 158.325 116.449 156.624 115.852 154.964C115.445 159.365 114.714 163.736 113.638 168.023C112.486 172.598 110.593 177.548 106.202 179.87C105.209 180.395 104.293 179.535 104.442 178.508C104.476 178.281 104.507 178.052 104.539 177.825L104.553 177.727C105.222 172.947 105.605 168.098 105.216 163.276C104.888 159.185 103.913 155.208 102.479 151.374C100.821 146.946 98.4865 142.882 96.1413 138.799L96.0041 138.56C91.7309 131.12 87.4353 122.799 87.668 114.028C80.2889 115.858 72.0252 114.467 65.5057 110.383C63.7638 109.292 65.3066 106.643 67.1118 107.619C73.1201 110.87 79.8885 112.71 86.684 111.087C87.1025 110.986 87.5187 110.875 87.9327 110.75C92.6267 109.349 96.9474 106.458 99.6122 102.281C103.055 96.8833 103.433 90.3655 103.944 84.1549C104.524 77.1298 104.976 70.0839 105.132 63.0358C105.216 59.1982 105.764 53.3184 103.944 49.5484C102.125 45.7784 95.7004 41.4699 95.7004 41.4699C93.7895 44.49 91.6964 46.3959 80.1745 51.1641C78.4258 51.8877 76.4268 52.2412 73.7499 53.8569C70.0915 56.987 68.9982 58.9408 66.4816 61.5396C65.7613 62.3355 65.032 63.1223 64.2966 63.9004C61.5551 66.8009 58.6844 69.6191 55.7164 72.2851C54.0508 73.7812 52.3361 75.2815 50.5182 76.6244C49.6647 77.4433 48.8096 78.2606 47.9627 79.0876C45.9629 81.0409 44.4608 83.0784 44.4111 85.9878C44.3613 88.8243 44.9992 91.736 45.6892 94.4724C46.1968 96.4942 46.8203 98.4862 47.577 100.426C48.5226 101.504 49.5032 102.551 50.5341 103.551C51.3713 104.363 52.2298 105.153 53.1138 105.914C54.0347 106.706 55.0959 107.391 55.9252 108.279C56.5561 108.954 55.7581 109.953 54.9613 109.536C53.8839 108.971 52.9498 108.055 52.0407 107.254C51.2322 106.542 50.4474 105.803 49.6869 105.04C51.9081 109.327 54.5569 113.39 56.5453 117.798C58.717 122.615 59.9973 127.833 58.5903 133.066C57.3189 137.804 54.2673 141.767 51.426 145.651C48.5327 149.601 45.6191 153.717 44.8997 158.691C44.2165 163.394 45.4223 168.116 47.9559 172.063C48.1685 172.396 48.3925 172.724 48.6232 173.044C49.5032 174.265 48.0102 176.288 46.5986 175.695C46.0851 175.478 45.5625 175.26 45.0332 175.032C39.6311 172.724 33.641 169.757 31.8493 163.745C31.56 162.775 31.4105 161.785 31.3652 160.785C30.2027 159.328 29.2886 157.623 28.6371 156.185C28.4697 155.814 28.3113 155.438 28.1668 155.058C27.4856 156.364 26.9382 157.749 26.5491 159.208C25.0493 164.824 26.2098 170.711 29.2252 175.519C30.2364 176.739 31.2024 178.001 32.1638 179.262C32.261 179.389 32.3561 179.515 32.4533 179.642C33.7676 181.37 30.9626 183.38 29.5306 181.912C28.2299 180.578 27.0762 179.121 26.0854 177.561C25.0221 176.314 23.8979 175.123 22.6695 174.037C19.9821 171.658 16.806 170.331 13.5553 168.933C10.3792 167.565 7.44519 165.81 5.16041 163.155C0.774088 158.056 -0.734771 151.256 0.905292 144.731C1.77848 141.257 3.46832 138.007 5.6332 135.175C7.72117 132.447 10.5014 130.209 12.2364 127.218C15.9147 120.878 11.0646 113.766 7.49043 108.617C3.53618 102.914 -0.642023 96.7376 0.482269 89.4297C1.39347 83.5164 5.55176 78.7354 9.38182 74.4348C10.8253 72.0172 12.3389 69.6391 13.6356 67.1376C18.0248 58.6708 17.8093 48.8901 20.351 39.8591C22.7944 31.178 28.0453 24.0607 35.4355 18.9847C42.7758 13.9435 51.5068 11.3947 60.3201 10.824C65.6349 10.48 70.9577 10.8775 76.2159 11.6752C76.681 11.7458 77.1483 11.8191 77.6164 11.894C81.3967 12.1212 85.1512 12.6901 88.7991 13.7216C101.139 17.2092 110.692 26.5179 116.33 37.9006C122.836 51.0407 123.792 66.0089 122.184 80.4035C121.284 88.451 119.49 96.2709 117.798 104.173C116.965 108.061 116.223 112.088 116.343 116.081C116.375 117.199 116.497 118.308 116.68 119.407Z" fill="#0A0909"/>
<path fill-rule="evenodd" clip-rule="evenodd" d="M89.2832 94.1396C90.0594 92.7614 92.3754 92.9854 92.7294 94.5929C93.4476 97.8515 89.5864 100.861 86.6537 100.936C83.7394 101.01 80.4694 98.514 80.8913 95.361C80.9956 94.5811 82.0308 94.6758 82.3837 95.1648L82.5207 95.3524C83.4792 96.6482 84.7439 97.9895 86.5227 97.6735C87.26 97.5428 87.9296 97.0793 88.3752 96.4827C88.9127 95.7626 88.8537 94.9027 89.2832 94.1396ZM94.8766 70.3896C95.3938 69.8689 96.1205 69.9459 96.6602 70.3556L96.7318 70.4121V70.4121C97.2405 70.6396 97.6615 71.1365 97.938 71.5971C98.225 72.0754 98.4157 72.5625 98.4232 73.0891C99.6751 73.0932 100.874 73.4711 101.793 74.4883C102.09 74.8165 102.293 75.3228 102.13 75.7679L102.032 76.0327V76.0327C101.724 76.8732 100.336 77.3571 99.8645 76.3686L99.8427 76.3204C99.3416 75.1466 97.4181 75.2698 96.3959 75.3898C95.6833 75.4738 94.9795 75.652 94.2914 75.8517C94.0489 75.922 93.8086 75.9984 93.5686 76.0763L93.3286 76.1547C93.2006 76.1963 92.5337 76.5608 92.9485 76.4745C93.0601 76.4513 93.144 76.6148 93.0302 76.6696C92.5357 76.9075 92.0082 76.4338 92.0412 75.8993C92.0984 74.9714 93.5626 74.4626 94.2671 74.1427L94.3092 74.1233C94.5793 73.9977 94.8623 73.8772 95.1544 73.7655C94.9901 73.5196 94.8544 73.2464 94.7415 72.9532C94.6348 72.6764 94.5635 72.4073 94.5244 72.1129C94.4859 71.9691 94.4859 71.8252 94.5244 71.6811L94.5302 71.6399V71.6399C94.5103 71.5447 94.5008 71.4464 94.5022 71.3473L94.4981 71.3089H94.5022C94.516 70.9621 94.6529 70.6147 94.8766 70.3896ZM86.6138 80.2708C88.6006 80.8887 91.8785 82.5717 90.8431 85.1695C89.3973 87.5553 85.5632 85.8019 83.7053 85.0311C82.0361 84.4747 81.1669 86.8288 82.781 87.5384C96.1184 92.8485 96.0693 78.8343 87.0974 79.0401C86.1095 79.0627 86.0785 80.0655 86.6138 80.2708ZM68.9678 61.9977L69.3067 61.8982C71.0678 61.3848 72.8655 60.4984 74.4291 61.8816C75.0431 62.4248 75.1695 63.5535 74.7302 64.231C73.7294 65.7747 72.2452 65.5388 70.6289 65.6704C69.3983 65.7706 68.186 66.1344 67.0373 66.589C66.0985 66.9608 65.2278 67.4841 64.4057 68.0678C63.5981 68.6417 63.0464 69.5389 62.218 70.0555C61.9144 70.2449 61.5638 70.05 61.4547 69.7429C61.0684 68.6536 61.7212 67.2965 62.2736 66.3684C62.948 65.2361 63.9723 64.31 65.0737 63.6092C66.2798 62.8418 67.6136 62.3987 68.9678 61.9977V61.9977ZM94.6288 60.8256C97.6056 60.8247 100.47 62.4909 102.135 64.9334C102.701 65.7632 102.286 66.9925 101.474 67.4703C100.563 68.0067 99.5887 67.6205 98.9883 66.8519L98.9527 66.8054C97.9979 65.5257 96.767 64.5179 95.3079 63.8618C94.596 63.5415 93.8088 63.2817 93.0388 63.1499L92.7899 63.107C92.4411 63.0482 92.0365 62.992 91.7211 63.047C91.5521 63.0693 91.3969 63.1256 91.2539 63.2112C91.3227 63.3623 91.1451 63.5445 90.9811 63.4538C90.2414 63.045 90.3321 62.3156 90.9431 61.7487C91.8075 60.9467 93.5125 60.8258 94.6288 60.8256ZM70.7521 70.2997C71.1471 70.1902 71.5457 70.2325 71.8956 70.3823C72.677 70.5264 73.3296 71.1821 73.559 71.9306C73.5771 71.9954 73.5973 72.0594 73.6196 72.1227L73.6545 72.2172L73.5608 71.9773C73.604 72.2136 73.7952 72.4619 73.8639 72.6992C73.9485 72.9908 73.9691 73.322 73.9406 73.643C74.189 73.6455 74.4374 73.6539 74.6853 73.6756L74.9249 73.6972C76.2648 73.8225 77.7358 74.0523 78.5301 75.2175C78.9762 75.8722 78.5575 77.051 77.7379 77.1771C76.4763 77.3713 75.3895 76.6687 74.1322 76.5281C72.9437 76.3949 71.7 76.4711 70.5268 76.6872C68.1047 77.1328 65.8791 78.1208 63.5188 78.7407L63.1974 78.8228C62.793 78.9211 62.3342 78.3536 62.7344 78.0226C64.6253 76.4593 67.0463 75.1924 69.4312 74.4209C69.0838 73.8647 68.9763 73.1322 69.2139 72.535C69.2506 72.4113 69.2963 72.291 69.3444 72.171L69.4448 71.9242C69.4545 71.8079 69.4767 71.6929 69.5088 71.5802L69.514 71.5459L69.517 71.5479C69.6946 70.9672 70.1583 70.4645 70.7521 70.2997Z" fill="black"/>
</svg>
